<?xml version="1.0" encoding="utf-8"?>
<!-- Generator: Adobe Illustrator 27.0.0, SVG Export Plug-In . SVG Version: 6.00 Build 0)  -->
<svg version="1.1" id="Capa_1" xmlns="http://www.w3.org/2000/svg" xmlns:xlink="http://www.w3.org/1999/xlink" x="0px" y="0px"
	 viewBox="0 0 89 93" style="enable-background:new 0 0 89 93;" xml:space="preserve">
<style type="text/css">
	.st0{fill:#BF2E14;}
</style>
<g transform="translate(0.000000,93.000000) scale(0.100000,-0.100000)">
	<path class="st0" d="M-38.2,947.5c-1.3-2.5-1.3-219.2-2.5-482.5l-1.3-478.8l487.6-3.8L931.9-20v485v485H446.9
		C179.8,950-38.2,948.8-38.2,947.5z M795.9,752.3c68-66.8,60.5-129.8-13.9-129.8c-27.7,0-37.8-12.6-70.6-84.4
		c-20.2-46.6-50.4-104.6-66.8-128.5c-26.5-37.8-29-55.4-25.2-144.9l3.8-102h-37.8c-34,0-37.8,5-55.4,75.6l-17.6,75.6l-20.2-75.6
		c-18.9-70.6-22.7-75.6-58-75.6c-36.5,0-37.8,1.3-34,56.7c1.3,31.5,6.3,75.6,10.1,98.3l6.3,40.3h-81.9h-81.9l30.2-81.9
		c40.3-105.8,40.3-119.7-3.8-119.7c-30.2,0-40.3,10.1-69.3,69.3c-18.9,37.8-39.1,69.3-44.1,69.3c-6.3,0-16.4-30.2-22.7-66.8
		c-10.1-61.7-13.9-65.5-49.1-65.5H56.3l-3.8,88.2c-5,115.9,1.3,134.8,54.2,162.5c26.5,15.1,44.1,34,44.1,47.9
		c0,20.2-3.8,21.4-25.2,10.1c-34-17.6-42.8,5-35.3,95.8c5,54.2,13.9,76.9,40.3,103.3c32.8,32.8,37.8,34,219.2,40.3
		c172.6,6.3,189,8.8,235.6,39.1C686.3,815.2,730.4,815.2,795.9,752.3z"/>
	<path class="st0" d="M604.4,729.6l-69.3-44.1H362.5c-161.3,0-175.1-1.3-204.1-27.7c-37.8-35.3-59.2-136.1-27.7-136.1
		c10.1,0,22.7,6.3,26.5,12.6c15.1,23.9,31.5-1.3,31.5-49.1c0-42.8-6.3-52.9-50.4-81.9l-50.4-32.8v-88.2
		c0-104.6,18.9-117.2,30.2-20.2l8.8,68l73.1,30.2c63,25.2,90.7,29,200.3,25.2l127.2-3.8l20.2-94.5c29-126,50.4-122.2,40.3,6.3
		c-7.6,89.5-5,100.8,18.9,122.2c13.9,13.9,47.9,70.6,74.3,128.5c40.3,88.2,51.7,103.3,78.1,103.3c17.6,0,37.8,8.8,46.6,18.9
		c13.9,16.4,10.1,26.5-25.2,63C726.6,785,692.6,785,604.4,729.6z M674.9,672.9c1.3-32.8-3.8-49.1-12.6-46.6
		c-16.4,5-25.2,52.9-15.1,79.4C659.8,739.7,673.7,723.3,674.9,672.9z"/>
	<path class="st0" d="M440.6,334c0-12.6-3.8-49.1-7.6-81.9c-11.3-76.9,12.6-76.9,31.5,2.5c8.8,32.8,17.6,69.3,21.4,81.9
		c5,15.1,0,21.4-18.9,21.4C449.4,357.9,440.6,350.4,440.6,334z"/>
	<path class="st0" d="M197.4,325.2c-8.8-8.8,56.7-131,70.6-131c11.3,0,3.8,29-23.9,97C226.4,331.5,213.8,341.5,197.4,325.2z"/>
</g>
</svg>
