<?xml version="1.0" encoding="utf-8"?>
<!-- Generator: Adobe Illustrator 27.0.0, SVG Export Plug-In . SVG Version: 6.00 Build 0)  -->
<svg version="1.1" id="Layer_1" xmlns="http://www.w3.org/2000/svg" xmlns:xlink="http://www.w3.org/1999/xlink" x="0px" y="0px"
	 viewBox="0 0 1190.6 1024" style="enable-background:new 0 0 1190.6 1024;" xml:space="preserve">
<style type="text/css">
	.st0{fill:#666666;}
</style>
<path class="st0" d="M135.3,709.3c-19.5-44.4-31.9-90-37.3-137.6c-10-89.3,2.7-175,39.7-257c29.2-64.6,70.9-120.1,123.5-167.6
	C331.4,83.8,413.9,44.9,506,25.7c64.2-13.4,128.4-10.9,191.8,5c94.9,23.9,176.9,71.2,244.7,141.6c68,70.6,112.8,153.9,131.7,250.6
	c7.3,37.3,10.2,74.7,8.7,112.4c-3.5,83.9-28,161.7-71.6,233.3C975,828,928,877.6,870.8,917.2c-62.5,43.2-131.2,71.8-206.5,83.6
	c-31.2,4.9-62.4,7.1-93.8,5.8c-54.6-2.3-107.4-13.2-158.2-33.3c-73.1-28.7-136.7-71.6-189.8-129.6
	C186.1,803.9,156.4,759.6,135.3,709.3 M775.3,733.2c0.3-28.4,1.2-56.7,0.8-85.2c-0.5-33.5,0.3-66.8,0.3-100.2
	c0-15.7-7.3-21-21.7-15.1c-20.4,8.2-40.8,16.7-61.1,25.2c-29.7,12.3-59.6,24-88.5,38.5c-10.9,5.5-21.9,6.7-33.6,1.1
	c-49.4-23.4-100.1-44.1-150.6-65.2c-10.5-4.4-19.8-2.4-19.6,13.5c0.6,46.8,0.2,93.7,0.2,140.7c0,56.6,0.2,113,0,169.6
	c0,9.3,2.7,16.4,11.6,20.2c37.1,16.4,74.1,32.8,111.2,49.3c16.1,7.1,32.2,14,49.1,19.6c8.1,2.6,16.3,5.5,23.4,2
	c9.6-4.7,20.1-6.2,29.8-10.3c43.3-19,86.5-38.3,130.2-56.7c13.4-5.6,19-13.5,18.9-28.1C774.9,812.7,775.3,773.8,775.3,733.2
	 M973.5,579.1c-15.7-16.1-34.8-26.6-55.2-35.4c-5.2-2.3-7.6-1.4-9.7,3.8c-14.1,33.3-33.8,63.4-54.3,93.1c-1.4,2-2.4,4.6-6.7,4.7
	c-17.6-23.9-33.9-49.4-49.1-76.6c-3.5,4.1-2.7,7.3-2.7,10.3c0,46.4,0,92.8-0.2,139.1c0,11.1,0,11.1,11.1,12.3c1.1,0.2,2,0.2,3,0.2
	c41.4,0.9,82.4-0.3,123-9.1c24.8-5.5,49.1-12.3,71.3-24.9c6.4-3.6,9-8.5,7.6-15.7c-1.7-9.4-2.6-19-4.6-28.4
	C1001.6,625.6,993.4,600.2,973.5,579.1 M164.8,686.6c1.5,4.7,5.3,7.1,9.3,9.6c18.7,10.6,38.8,17.3,59.5,22.2
	c26.9,6.4,54.1,10.3,81.7,11.7c19.5,0.9,38.9,0.6,58.4-0.8c6.7-0.5,7.8-4,7.8-9.4c-0.2-46.4-0.2-92.8-0.3-139.1c0-2,0.8-4.6-3.3-6.5
	c-5.9,33.9-28.7,57-50,82.4c-16.9-18.4-31.9-36.7-42.6-58.2c-7.9-16-12.3-33.2-16.7-50.3c-1.4-5.6-4-7.8-9.7-5
	c-7.9,4-16.1,7.3-24,11.4c-26.5,14-44.6,35.1-55.5,63C170.7,639.3,167.5,662.3,164.8,686.6 M416.6,339.1
	c31.9,56.6,77.7,93.5,143.7,102.8c45,6.2,87.1-1.5,126.4-24.2c65.7-38,103.9-118.2,92.9-194.8c-7.6-53.5-33.2-96.9-75.6-129.7
	c-41.5-32.1-88.8-43.6-140.7-37.1c-102.7,12.9-171.4,103-169,200C395.2,284.8,402.8,312.4,416.6,339.1 M842.1,514.5
	c21,1.2,39.7-3.8,54.3-19.9c22.2-24.6,29.4-54.1,25.4-86.1c-4-31.2-31.2-56.3-62.4-60.1c-33.2-4.1-63.4,12.2-76.2,42
	c-14.9,35-6.8,67.4,14,97.3C807.7,502.6,822.5,511.6,842.1,514.5 M350.9,351.4c-42.4-12.2-82.7,7.9-94,49c-9,33-1.1,63.9,20.5,90.5
	c27.7,34.4,78.5,31,103.1-4.4c10.6-15.2,16.6-32.1,19-50.5C404.7,398.1,387.4,366.7,350.9,351.4 M333.6,569.7
	c8.7-11.3,17.3-22.5,26-33.9c-11.9,1.5-22.1,4.4-33.5,4.6c-11.1,0.3-19.6-6.4-31.6-6.2c9.7,14.9,20.7,27.4,30.6,40.1
	c-9.1,10.5-10.8,23.7-17,35c-0.5,0.9,0,2.6,0.6,3.5c6.2,12,12.5,24,19.6,37.9c6.7-13.7,12.5-25.7,18.2-37.6c0.5-1.1,0.6-2.6,0.3-3.6
	c-4.6-10.6-8.4-21.7-14.1-31.8C330.7,574.1,331.1,572.9,333.6,569.7 M811.5,533.5c-2.9-1.4-4.1-0.2-2.9,2.6
	c6.7,15.2,14.9,29.5,24.6,43.9c4-5.3,7.3-9.7,10.5-14.3c4.9-7,7-7.1,12.2,0c3.2,4.4,5.2,9.7,10.6,13.7c9.4-14.6,17.3-29.7,24-46.1
	c-2,0.2-2.6,0-2.9,0.2c-2,1.1-4.1,2.1-5.9,3.2c-21,12.5-42.1,14.3-63.6,0.8C816.4,536.2,814.4,535.2,811.5,533.5 M460.7,524.5
	c0.6,2.1,2.1,3.3,4.1,4.1c12.2,5,24.3,10,36.5,15.1c1.7,0.6,3.2,1.2,5.2,0.8c7.9-1.8,21.9,3,24.9,9.4c3.8,8.4,11.9,8.5,18.9,12.8
	c0-5.2-2.7-6.8-5-8.8c-23.1-21-49.4-36.8-78.3-48.5c-14.4-5.8-29-8.4-44.1-2c-2.1,0.9-4.6,1.1-4.6,4.9c6.4,4.4,13.8,5.8,21.7,5.8
	C446.9,518.3,454.3,518,460.7,524.5 M733.8,504.6c-3.6,0.6-7.6,1.1-11.1,2c-30.6,9-57.8,24.2-82.9,43.6c-7,5.3-14.6,10.3-20.7,18.4
	c5.5,0.3,7.6-2.6,9.6-5.3c4.4-6.1,10.8-10.5,17.5-10.6c6.5-0.2,11.7-2.4,17.2-4.6c5.2-2,10.3-4.1,15.5-6.1
	c8.2-3.3,18.9-4.6,23.9-10.5c6.7-7.9,14.4-9.1,23-10.9c9.9-2.1,20.4-0.8,29.7-5.3c1.8-0.9,4.1-1.2,4-4c-0.2-2.4-2.3-3.2-4.3-3.6
	C748.6,506.3,742,504.4,733.8,504.6 M509.4,503.4c-9.9-7.5-20.5-13.8-31.5-19.6c-2.4-1.4-5.2-2.9-7.9-1.1
	c-5.6,3.8-11.7,2.3-17.6,1.7c-3.5-0.5-7.3-2-8.2,3.5c-0.8,5.2,2.6,5.9,6.5,7.1c10.2,3,20.7,3.6,30.7,9.4
	c27.2,15.8,54.1,31.5,77,53.5c1.1,1.1,2.3,2.9,5.2,1.5C549.8,537,531,519.5,509.4,503.4 M677.1,496.5c-23.1,14.3-42,33.3-57.9,55.2
	c5.5-0.5,9.6-3.2,13.4-6.5c3.2-2.7,6.2-5.9,9.9-8.4c26.3-17,52-35.1,83.6-41.5c4.1-0.8,7.3-2.6,6.1-7.6c-1.2-4.9-4.7-4.4-8.4-3.5
	c-4.6,1.1-9.7,2.3-13.4,0.2c-6.7-3.8-11.6-0.9-16.7,2.1C688.4,489.7,683.2,492.9,677.1,496.5z"/>
<path class="st0" d="M720.6,359.8c-24.2,28.6-53.4,48.2-89.4,56.7c-101.6,23.7-189.6-35.6-210.9-130.9
	c-17.3-77.4,23.1-156.9,89.1-190.9c83.8-43,188.3-10.6,230.4,73.6C773.5,235.6,765.9,299.6,720.6,359.8 M732.3,222.3
	c-5.3-29.5-18.7-54.9-39.7-76.3c-27.5-28.1-61-43.9-99.9-45.3c-30.1-1.1-58.5,7.6-84.1,24.5c-38.5,25.4-61.3,61.4-66.9,106.6
	c-5.6,45.2,8.5,85.5,39.5,118.6c35.4,37.6,80,53.4,130.9,44.7c49.6-8.5,86.4-36.2,108.1-82.1C733.8,284.7,739.3,254.9,732.3,222.3z"
	/>
<path class="st0" d="M583.3,149c-5-11.3-3.3-22.5-2-33.6c0.5-3.8,3.8-5.8,7.9-5.3c4.1,0.5,6.7,2.9,6.8,6.8
	c0.3,9.1,0.8,18.2-0.2,27.2C595.3,151.5,589.5,151,583.3,149z"/>
<path class="st0" d="M581.1,255.8c-5-9-3.3-51.7-2-60.5c0.5-3,3.8-4.6,7.9-4.3c4.1,0.3,6.7,2.3,6.8,5.5c0.3,7.1,0.8,48.4-0.2,55.5
	C593.2,257.8,587.4,257.5,581.1,255.8z"/>
<path class="st0" d="M579.3,243.5c12.8-5,74.1-3.3,86.7-2c4.3,0.5,6.7,3.8,6.1,7.9c-0.5,4.1-3.3,6.7-7.8,6.8
	c-10.3,0.3-69.2,0.8-79.4-0.2C576.4,255.5,576.9,249.7,579.3,243.5z"/>
<path class="st0" d="M718.3,257.9c-7.5,0.2-14.3,0.2-21.1,0.2c-5.3,0-8.8-2.3-8.8-8.1c0-5.9,3.2-7.9,8.8-7.8c6.8,0.2,13.7,0,20.5,0
	c4.9,0,10.2-0.3,10.9,6.4C729,255,724.7,257.3,718.3,257.9z"/>
<path class="st0" d="M472.6,258.2c-6.2-0.3-11.9-0.3-17.3-0.8c-4.4-0.3-7-2.7-6.8-7.5c0.2-4.3,2.4-7.5,6.8-7.6
	c8.8-0.3,17.8-0.5,26.6-0.3c4.1,0.2,6.5,3.2,6.5,7.1c0,4.3-1.8,8.1-6.7,8.8C478.9,258.5,476.1,258.2,472.6,258.2z"/>
<path class="st0" d="M596.4,380.5c-1.1,6.5-5.2,7.8-10.2,7c-4.9-0.6-5.8-4.6-5.8-8.5c-0.2-7.3,0-14.6-0.2-21.9c-0.2-6.2,4-7.5,9-7.8
	c5.5-0.3,7,3.3,7,7.8C596.4,364.7,596.4,372.3,596.4,380.5z"/>
<path class="st0" d="M644.9,356.3c-2.3-4-4.3-7.5-6.1-11.1c-1.2-2.4-1.1-5,1.4-6.8c2.4-1.8,5.3-1.2,6.8,0.8
	c5.8,7.3,11.9,14.4,16.3,22.7c1.7,3.2,0,5.6-3,7.5c-2.9,1.7-5.3,1.4-7.1-1.4C650.2,364.4,647.8,360.6,644.9,356.3z"/>
<path class="st0" d="M517.1,143.4c-2.3-4.7-8.2-9.3-1.7-13.5c6.2-4.1,8.7,2.6,11.4,6.4c3.6,5.2,6.8,10.6,10.3,16
	c1.8,2.7,1.7,5.2-1.1,7.3c-2.9,2.1-5.8,2.1-8.1-0.9C524.4,153.7,520.9,148.7,517.1,143.4z"/>
<path class="st0" d="M520.8,350.1c2.6-3.5,4.6-6.7,7-9.6c2.1-2.7,5.2-3.3,8.1-1.5c3.3,2,3,5,1.2,7.9c-4.3,7.1-8.8,14.1-14.1,20.7
	c-2.3,2.7-4.6,3.8-7.8,1.5c-3.2-2.3-4-5-1.7-8.4C515.9,357.2,518.2,353.9,520.8,350.1z"/>
<path class="st0" d="M646.4,160c-8.1,0-9.9-2.6-6.4-8.8c3.6-6.4,7.6-12.5,11.7-18.7c2.1-3.2,4.9-5.6,8.8-3c3.6,2.4,3.6,6.1,1.5,9.4
	C657.5,146.1,652.9,153.4,646.4,160z"/>
<path class="st0" d="M677.6,310.1c-2.7-3.5-2.9-6.5,0-9.1c2.6-2.4,5.3-0.5,7.6,0.9c5.9,3.2,11.9,6.7,17.8,10c3.5,2,5.5,4.6,3.3,8.7
	c-2.1,4.1-5.3,3.6-9,1.7C690.6,318.4,684.1,314.9,677.6,310.1z"/>
<path class="st0" d="M480.8,306.9c4.1-2.1,7.6-4.1,11.1-5.9c2.9-1.5,5.3-0.9,7.1,1.8c2,2.9,0.9,5.2-1.5,7.1
	c-6.2,5.2-13.5,8.5-20.5,12.5c-3.3,2-5.6,0.2-7.6-2.4c-2.3-3.2-1.1-5.9,1.7-7.8C473.9,310.4,477.1,308.9,480.8,306.9z"/>
<path class="st0" d="M471.8,176.4c9.9,1.8,17.5,7.5,25.2,12.6c2.6,1.7,3.8,4.1,1.8,7.1c-1.8,2.9-4.6,3.8-7.1,2.6
	c-7.6-3.5-15.2-7.1-21.7-12.3C465.6,182.8,467.2,179.4,471.8,176.4z"/>
<path class="st0" d="M697.6,191c-4.9,2.6-9.3,5.2-13.8,7.3c-2.4,1.2-5,1.1-6.7-1.7c-1.8-2.7-1.4-5.6,1.2-7.3
	c7.1-4.6,14.6-9,22.1-13.2c2.7-1.5,4.9,0.2,6.2,2.6c1.4,2.4,1.2,5-1.1,6.8C703.1,187.4,700.5,188.9,697.6,191z"/>
</svg>
