<?xml version="1.0" encoding="utf-8"?>
<!-- Generator: Adobe Illustrator 27.0.0, SVG Export Plug-In . SVG Version: 6.00 Build 0)  -->
<svg version="1.1" id="Capa_1" xmlns="http://www.w3.org/2000/svg" xmlns:xlink="http://www.w3.org/1999/xlink" x="0px" y="0px"
	 viewBox="0 0 114 118" style="enable-background:new 0 0 114 118;" xml:space="preserve">
<style type="text/css">
	.st0{fill:#D78D06;}
	.st1{fill:#FFFFFF;}
</style>
<g>
	<path class="st0" d="M-3.7,121.2c0-41.5,0-83,0-124.5c40.5,0,80.9,0,121.4,0c0,41.5,0,83,0,124.5C77.2,121.2,36.8,121.2-3.7,121.2z
		 M110.9,7.9c-1-0.3-1.3-0.4-1.7-0.4C76.1,7.4,43,7.5,10,7.3c-4.3,0-4.1,2.5-4.1,5.4c0,31.4,0.1,62.8-0.1,94.1
		c0,4.5,1.2,5.9,5.7,5.9c31.4-0.2,62.8-0.2,94.1,0c4.2,0,5.6-1.1,5.6-5.4c-0.2-31.5-0.1-63.1-0.1-94.6C111.2,11.1,111,9.6,110.9,7.9
		z"/>
	<path class="st0" d="M110.9,7.9c0.1,1.7,0.3,3.2,0.3,4.7c0,31.5-0.1,63.1,0.1,94.6c0,4.4-1.4,5.5-5.6,5.4
		c-31.4-0.1-62.8-0.1-94.1,0c-4.6,0-5.8-1.4-5.7-5.9C6,75.5,5.9,44.1,5.9,12.7c0-2.9-0.2-5.4,4.1-5.4C43,7.5,76.1,7.4,109.2,7.5
		C109.6,7.5,109.9,7.6,110.9,7.9z M58.7,106.5c0.8-1.9,1.9-3.2,1.7-4.3c-1-5.4,2.2-6.8,6.5-8.2c8.3-2.8,14.3-12,14-20.7
		c-0.1-2.4-1-5.6-3.7-3.6c-7.2,5.5-17.9,8-18.5,19.9c-1.2-8-11.7-18.2-20.8-20.2c-3.9,6.5,1.1,20.5,10.8,24
		c5.8,2.1,9.1,4.4,8.2,10.8C56.8,104.6,57.6,105.2,58.7,106.5z M61.5,77.4c4-2.8,7.8-5.8,12-8.2c7-4.2,7.9-10.6,7.2-17.7
		c-0.3-2.8-1.7-4.2-4.5-2.2c-4.6,3.3-9.3,6.4-13.6,10C58.2,62.9,57.7,72,61.5,77.4z M38.3,47.3C35,55,36.1,63.1,40.7,66.9
		c4,3.2,8.3,6,12.5,9c2.3,1.7,4.2,1,4.7-1.4c1-5.1,1.4-10.7-2.8-14.5C50,55.4,44.2,51.7,38.3,47.3z M61.8,56.7
		c4.2-3,8.4-6.2,12.8-9.1c6.3-4.1,6.7-10.3,6.1-16.8c-0.3-2.9-2-3.9-4.6-2.1c-4.6,3.3-9.3,6.4-13.6,10.1
		C58,42.6,57.7,52.1,61.8,56.7z M55.3,56.6c4.2-4.7,4-13.6-0.5-17.7c-4.4-4-9.4-7.3-14.4-10.6c-0.7-0.5-3.4,0.4-3.8,1.2
		c-2.1,4.1-0.1,13.2,3.6,16.1C45,49.5,50.1,52.9,55.3,56.6z M58.5,16.7c-2.9,3.6-2.7,18,0.3,20.8C61.4,33.5,61.2,19.8,58.5,16.7z
		 M54.3,26.9c0.3-0.1,0.5-0.3,0.8-0.4c-1-1.9-2-3.8-2.9-5.7c-0.8,2.1-1.9,4.1-2.5,6.3c-0.3,1.1-0.1,2.5,0.3,3.5
		c0.3,0.8,1.4,1.7,2.2,1.7c0.7,0,1.7-1.1,1.9-1.9C54.4,29.4,54.3,28.1,54.3,26.9z M64.5,32.9c2.8-2.6,3.9-9.3,2-11.2
		c-0.5-0.5-3.1-0.1-3.1,0.2C62.9,25.6,61.7,29.4,64.5,32.9z"/>
	<path class="st1" d="M58.7,106.5c-1.1-1.4-1.8-1.9-1.8-2.4c0.9-6.4-2.4-8.7-8.2-10.8C39,89.9,34,75.9,37.8,69.4
		c9.1,2,19.6,12.1,20.8,20.2c0.5-11.9,11.3-14.4,18.5-19.9c2.6-2,3.6,1.2,3.7,3.6c0.3,8.7-5.7,17.9-14,20.7
		c-4.3,1.4-7.5,2.8-6.5,8.2C60.6,103.3,59.4,104.6,58.7,106.5z M53.3,90.7c0.4-6.8-5-12.6-12.3-14C42.7,83.3,45.9,88.5,53.3,90.7z
		 M63.5,90.3c7.3-2,11.7-7.3,12.1-15.2C70.9,80.1,62.8,81,63.5,90.3z"/>
	<path class="st1" d="M61.5,77.4c-3.8-5.3-3.3-14.5,1.1-18.2c4.3-3.6,9-6.7,13.6-10c2.8-2,4.2-0.7,4.5,2.2
		c0.7,7.1-0.1,13.6-7.2,17.7C69.3,71.6,65.5,74.6,61.5,77.4z M64.1,70.2c11.6-7,12.9-8.7,11.3-14.8C65.6,60.2,63,63.6,64.1,70.2z"/>
	<path class="st1" d="M38.3,47.3c5.9,4.4,11.7,8,16.7,12.6c4.2,3.8,3.8,9.4,2.8,14.5c-0.5,2.5-2.4,3.1-4.7,1.4
		c-4.1-3-8.5-5.8-12.5-9C36.1,63.1,35,55,38.3,47.3z M52.9,70c1.3-6.5-2.2-10.7-11.7-14.3C40.4,62.2,43,65.4,52.9,70z"/>
	<path class="st1" d="M61.8,56.7c-4.1-4.6-3.8-14.1,0.7-18c4.3-3.7,9-6.8,13.6-10.1c2.6-1.9,4.4-0.9,4.6,2.1
		c0.6,6.5,0.2,12.7-6.1,16.8C70.2,50.5,66,53.7,61.8,56.7z M75.7,33.5c-5.1,5.4-13.8,6.4-11.7,17C68.9,45,77.5,44.1,75.7,33.5z"/>
	<path class="st1" d="M55.3,56.6c-5.2-3.7-10.3-7.1-15.1-10.9c-3.7-2.9-5.7-12-3.6-16.1c0.4-0.9,3.1-1.7,3.8-1.2
		c5,3.3,10,6.6,14.4,10.6C59.3,43.1,59.5,51.9,55.3,56.6z M41.9,34c-2,7,2.4,12.3,11.5,15.1C54.8,39.9,46.3,38.9,41.9,34z"/>
	<path class="st1" d="M58.5,16.7c2.7,3,2.9,16.8,0.3,20.8C55.8,34.7,55.6,20.3,58.5,16.7z"/>
	<path class="st1" d="M54.3,26.9c-0.1,1.2,0.1,2.5-0.2,3.5c-0.3,0.8-1.3,1.8-1.9,1.9c-0.7,0-1.8-0.9-2.2-1.7c-0.4-1-0.6-2.4-0.3-3.5
		c0.6-2.2,1.6-4.2,2.5-6.3c1,1.9,2,3.8,2.9,5.7C54.8,26.6,54.6,26.8,54.3,26.9z"/>
	<path class="st1" d="M64.5,32.9c-2.7-3.5-1.6-7.4-1.1-11c0-0.2,2.6-0.7,3.1-0.2C68.4,23.6,67.2,30.3,64.5,32.9z"/>
	<path class="st0" d="M53.3,90.7c-7.4-2.2-10.6-7.4-12.3-14C48.3,78.1,53.6,83.9,53.3,90.7z"/>
	<path class="st0" d="M63.5,90.3c-0.7-9.3,7.4-10.2,12.1-15.2C75.2,83,70.9,88.3,63.5,90.3z"/>
	<path class="st0" d="M64.1,70.2c-1.2-6.7,1.5-10,11.3-14.8C77,61.6,75.7,63.3,64.1,70.2z"/>
	<path class="st0" d="M52.9,70c-9.9-4.6-12.5-7.8-11.7-14.3C50.8,59.2,54.2,63.4,52.9,70z"/>
	<path class="st0" d="M75.7,33.5c1.8,10.6-6.9,11.5-11.7,17C62,39.9,70.7,38.8,75.7,33.5z"/>
	<path class="st0" d="M41.9,34c4.4,4.9,12.9,5.9,11.5,15.1C44.3,46.3,39.9,41,41.9,34z"/>
</g>
</svg>
