<?xml version="1.0" encoding="utf-8"?>
<!-- Generator: Adobe Illustrator 27.0.0, SVG Export Plug-In . SVG Version: 6.00 Build 0)  -->
<svg version="1.1" id="Capa_1" xmlns="http://www.w3.org/2000/svg" xmlns:xlink="http://www.w3.org/1999/xlink" x="0px" y="0px"
	 viewBox="0 0 114 118" style="enable-background:new 0 0 114 118;" xml:space="preserve">
<style type="text/css">
	.st0{fill:#3B7D8B;}
</style>
<g transform="translate(0.000000,118.000000) scale(0.100000,-0.100000)">
	<path class="st0" d="M-57.2,590V-37.2H570h627.2V590v627.2H570H-57.2V590z M932.9,857.9c37.8-67,68.2-131.5,67-142.5
		C995,685,589.5,157.7,571.2,157.7c-17,0-47.5,37.8-285,350.7c-86.5,114.5-148.6,207-146.1,219.2c2.4,11,34.1,74.3,70.6,138.8
		l67,119.3l292.3-3.7l292.3-2.4L932.9,857.9z"/>
	<path class="st0" d="M369.1,885.9c20.7-35.3,42.6-73.1,48.7-82.8c13.4-20.7,11-24.4,73.1,82.8l36.5,63.3H430h-97.4L369.1,885.9z"/>
	<path class="st0" d="M649.2,885.9c20.7-35.3,42.6-73.1,48.7-82.8c13.4-23.1,21.9-14.6,71.9,76.7l39,69.4h-97.4h-98.6L649.2,885.9z"
		/>
	<path class="st0" d="M517.6,847c-28-48.7-51.1-92.6-51.1-96.2c0-4.9,46.3-8.5,103.5-8.5s103.5,2.4,103.5,6.1
		c0,6.1-95,177.8-101.1,185.1C571.2,934.6,546.9,895.7,517.6,847z"/>
	<path class="st0" d="M243.6,840.9c-24.4-47.5-45.1-87.7-45.1-91.3c0-3.7,43.8-7.3,97.4-7.3s97.4,3.7,97.4,7.3
		c0,7.3-96.2,175.4-101.1,175.4C291.1,924.9,269.2,887.1,243.6,840.9z"/>
	<path class="st0" d="M828.2,899.3c-48.7-80.4-82.8-147.4-77.9-152.2c2.4-3.7,48.7-4.9,102.3-2.4l96.2,3.7l-51.1,90.1
		C846.4,927.3,846.4,927.3,828.2,899.3z"/>
	<path class="st0" d="M205.9,691.1c12.2-20.7,260.6-347.1,288.6-380c13.4-14.6,20.7-18.3,17-7.3c-2.4,9.7-25.6,104.7-51.1,210.7
		l-45.1,191.2H305.7C221.7,705.7,199.8,702,205.9,691.1z"/>
	<path class="st0" d="M466.5,697.2c-1.2-6.1,21.9-109.6,51.1-231.4l51.1-222.9l46.3,192.4c26.8,104.7,51.1,209.5,54.8,231.4l7.3,39
		H571.2C514,705.7,466.5,702,466.5,697.2z"/>
	<path class="st0" d="M675.9,502.3c-26.8-113.3-47.5-205.8-46.3-208.2c3.7-2.4,286.2,365.3,304.5,397c6.1,11-15.8,14.6-99.9,14.6
		H724.7L675.9,502.3z"/>
</g>
</svg>
